<svg width="204" height="40" viewBox="0 0 204 40" fill="none" xmlns="http://www.w3.org/2000/svg">
<path d="M172.979 40H169.287L172.073 22.4228H175.765L181.291 33.7292L183.077 22.4228H186.769L183.982 40H180.291L174.765 28.6936L172.979 40Z" fill="#02539C"/>
<path d="M155.333 40H151.234L160.299 22.4228H163.987L167.387 40H163.529L162.903 36.247H157.213L155.333 40ZM160.757 29.0974L158.804 33.1116H162.348L161.673 29.0974C161.601 28.6698 161.48 27.8385 161.48 27.4347C161.336 27.8385 161.046 28.5273 160.757 29.0974Z" fill="#02539C"/>
<path d="M135.363 40H131.757L134.533 22.4228H137.997L141.034 35.6532L148.294 22.4228H152.09L149.314 40H145.708L146.514 34.9169C146.87 32.6128 147.226 30.9739 147.439 30.1663L142.196 40H138.803L136.668 30.1663C136.668 31.734 136.407 33.4917 136.17 34.9169L135.363 40Z" fill="#02539C"/>
<path d="M128.508 40H117.6L120.375 22.4228H131.282L130.737 25.8907H123.528L122.959 29.5012H129.338L128.816 32.7791H122.438L121.845 36.5321H129.053L128.508 40Z" fill="#02539C"/>
<path d="M114.351 40H103.444L106.218 22.4228H117.125L116.58 25.8907H109.371L108.802 29.5012H115.181L114.659 32.7791H108.281L107.688 36.5321H114.896L114.351 40Z" fill="#02539C"/>
<path d="M91.0685 40H87.3865L90.148 22.4228H96.6387C100.108 22.4228 102.303 24.3943 102.303 27.5059C102.303 29.8337 100.958 31.8052 98.5033 32.9929L100.651 40H96.8512L94.9866 33.8005H92.0362L91.0685 40ZM93.3108 25.7482L92.5555 30.5226H95.4114C97.2996 30.5226 98.4561 29.5012 98.4561 27.8147C98.4561 26.5083 97.5592 25.7482 96.0487 25.7482H93.3108Z" fill="#02539C"/>
<path d="M84.7157 33.1116H78.5611L77.4552 40H73.7048L76.5176 22.4228H87.5765L87.0236 25.8907H79.7151L79.09 29.7387H85.2446L84.7157 33.1116Z" fill="#02539C"/>
<path d="M199.049 0.380054L196.793 14.5656H203.707L203.155 18.0523H192.495L195.304 0.380054H199.049Z" fill="#02539C"/>
<path d="M185.922 0.380054L183.703 14.5656H190.5L189.957 18.0523H179.479L182.24 0.380054H185.922Z" fill="#02539C"/>
<path d="M165.477 18.0523H161.427L170.384 0.380054H174.029L177.389 18.0523H173.577L172.957 14.279H167.335L165.477 18.0523ZM170.837 7.09071L168.907 11.1267H172.409L171.742 7.09071C171.671 6.66085 171.552 5.825 171.552 5.41902C171.409 5.825 171.123 6.51756 170.837 7.09071Z" fill="#02539C"/>
<path d="M148.9 18.0523H145.179L147.97 0.380054H151.691L150.57 7.42505H157.344L158.466 0.380054H162.187L159.396 18.0523H155.675L156.82 10.8878H150.045L148.9 18.0523Z" fill="#02539C"/>
<path d="M131.755 5.90523C131.755 2.31906 134.311 0 138.217 0C141.578 0 144.206 2.34296 144.324 5.45098H140.608C140.466 4.15996 139.472 3.34709 138.028 3.34709C136.371 3.34709 135.424 4.06432 135.424 5.35535C135.424 6.35947 135.968 6.95717 137.176 7.31579L139.661 8.05693C142.241 8.84589 143.472 10.3043 143.472 12.6233C143.472 16.066 140.892 18.3373 136.939 18.3373C133.128 18.3373 130.666 16.2573 130.548 12.8863H134.264C134.335 14.2012 135.4 14.9902 137.105 14.9902C138.809 14.9902 139.827 14.249 139.827 13.0058C139.827 12.1213 139.424 11.6909 138.312 11.3562L135.755 10.6151C133.199 9.87392 131.755 8.17647 131.755 5.90523Z" fill="#02539C"/>
<path d="M118.695 18.0523H114.966L117.762 0.380054H124.336C127.85 0.380054 130.073 2.36221 130.073 5.49066C130.073 7.83104 128.71 9.81319 126.224 11.0073L128.399 18.0523H124.551L122.663 11.8192H119.675L118.695 18.0523ZM120.965 3.72344L120.201 8.5236H123.093C125.005 8.5236 126.176 7.4967 126.176 5.80112C126.176 4.48765 125.268 3.72344 123.738 3.72344H120.965Z" fill="#02539C"/>
<path d="M101.034 18.0523H97.0085L105.913 0.380054H109.536L112.875 18.0523H109.086L108.471 14.279H102.882L101.034 18.0523ZM106.363 7.09071L104.445 11.1267H107.926L107.263 7.09071C107.192 6.66085 107.073 5.825 107.073 5.41902C106.931 5.825 106.647 6.51756 106.363 7.09071Z" fill="#02539C"/>
<path d="M80.8522 18.0523H77.246L80.0218 0.380054H83.4857L86.5226 13.682L93.7825 0.380054H97.5785L94.8027 18.0523H91.1964L92.0031 12.9416C92.359 10.6252 92.7148 8.97734 92.9284 8.16538L87.6851 18.0523H84.2924L82.1571 8.16538C82.1571 9.74154 81.8961 11.5088 81.6589 12.9416L80.8522 18.0523Z" fill="#02539C"/>
<path d="M15.409 40H-7.42632e-06L6.02816 0.290951H21.4371L15.409 40Z" fill="#02539C"/>
<path d="M32.8544 40H17.5228L23.44 0.290951H38.7716L32.8544 40Z" fill="#02539C"/>
<path d="M50.305 40H34.8573L40.9409 0.290951H56.3886L50.305 40Z" fill="#02539C"/>
<path d="M71.5437 15.611H56.1347L58.591 0.280468H74L71.5437 15.611Z" fill="#02539C"/>
<path d="M63.9999 32.6449H53.5361L55.9924 17.3144H66.4563L63.9999 32.6449Z" fill="#02539C"/>
</svg>
